<svg width="63" height="62" viewBox="0 0 63 62" fill="none" xmlns="http://www.w3.org/2000/svg">
<path d="M53.5912 6.45834H9.67456L13.5496 50.375L31.6329 55.5417L49.7162 50.375L53.5912 6.45834Z" fill="#0277BD"/>
<path d="M31.6329 10.3333V51.5375L46.0995 47.4042L49.3287 10.3333H31.6329Z" fill="#039BE5"/>
<path d="M43.387 16.7917H31.6329V21.9583H37.962L37.5745 27.125H31.6329V32.2917H37.3162L36.9287 38.1042L31.6329 39.9125V45.3375L41.837 41.9792L42.7412 27.125L43.387 16.7917Z" fill="white"/>
<path d="M31.6328 16.7917V21.9583H20.137L19.7495 16.7917H31.6328ZM25.6912 27.125L25.9495 32.2917H31.6328V27.125H25.6912ZM26.2078 34.875H21.0412L21.4287 41.9792L31.6328 45.3375V39.9125L26.337 38.1042L26.2078 34.875Z" fill="#EEEEEE"/>
</svg>
