<svg width="36" height="36" viewBox="0 0 36 36" fill="none" xmlns="http://www.w3.org/2000/svg">
<path d="M19.5 12.75H13.5C10.6005 12.75 8.25 10.3995 8.25 7.5C8.25 4.6005 10.6005 2.25 13.5 2.25H19.5V12.75Z" fill="url(#paint0_linear_5_357)"/>
<path d="M18.75 23.25H13.5C10.6005 23.25 8.25 20.8995 8.25 18C8.25 15.1005 10.6005 12.75 13.5 12.75H18.75V23.25Z" fill="url(#paint1_linear_5_357)"/>
<path d="M13.5 33.75C10.6005 33.75 8.25 31.3995 8.25 28.5C8.25 25.6005 10.6005 23.25 13.5 23.25H18.75V28.5C18.75 31.3995 16.3995 33.75 13.5 33.75Z" fill="url(#paint2_linear_5_357)"/>
<path d="M24 12.75H18.75V2.25H24C26.8995 2.25 29.25 4.6005 29.25 7.5C29.25 10.3995 26.8995 12.75 24 12.75Z" fill="url(#paint3_linear_5_357)"/>
<path d="M24 23.25C26.8995 23.25 29.25 20.8995 29.25 18C29.25 15.1005 26.8995 12.75 24 12.75C21.1005 12.75 18.75 15.1005 18.75 18C18.75 20.8995 21.1005 23.25 24 23.25Z" fill="url(#paint4_linear_5_357)"/>
<defs>
<linearGradient id="paint0_linear_5_357" x1="12.2317" y1="0.82575" x2="17.2672" y2="14.6595" gradientUnits="userSpaceOnUse">
<stop stop-color="#F44F5A"/>
<stop offset="0.443" stop-color="#EE3D4A"/>
<stop offset="1" stop-color="#E52030"/>
</linearGradient>
<linearGradient id="paint1_linear_5_357" x1="11.73" y1="10.977" x2="16.7355" y2="24.7283" gradientUnits="userSpaceOnUse">
<stop stop-color="#AE4CD5"/>
<stop offset="1" stop-color="#9331BF"/>
</linearGradient>
<linearGradient id="paint2_linear_5_357" x1="11.1075" y1="19.7678" x2="16.3657" y2="34.2127" gradientUnits="userSpaceOnUse">
<stop stop-color="#33C481"/>
<stop offset="1" stop-color="#21A366"/>
</linearGradient>
<linearGradient id="paint3_linear_5_357" x1="20.6235" y1="0.384" x2="25.5893" y2="14.0265" gradientUnits="userSpaceOnUse">
<stop stop-color="#F09CA2"/>
<stop offset="1" stop-color="#EB6773"/>
</linearGradient>
<linearGradient id="paint4_linear_5_357" x1="21.5355" y1="11.229" x2="26.1427" y2="23.8875" gradientUnits="userSpaceOnUse">
<stop stop-color="#32BDEF"/>
<stop offset="1" stop-color="#1EA2E4"/>
</linearGradient>
</defs>
</svg>
