<svg width="36" height="36" viewBox="0 0 36 36" fill="none" xmlns="http://www.w3.org/2000/svg">
<path d="M31.65 16.575L19.425 4.35C19.05 3.975 18.525 3.75 18 3.75C17.475 3.75 16.95 3.975 16.575 4.35L13.95 6.975L17.025 10.05C17.325 9.9 17.625 9.825 18 9.825C19.275 9.825 20.25 10.8 20.25 12.075C20.25 12.45 20.175 12.75 20.025 13.05L23.025 16.05C23.325 15.9 23.625 15.825 24 15.825C25.275 15.825 26.25 16.8 26.25 18.075C26.25 19.35 25.275 20.325 24 20.325C22.725 20.325 21.75 19.35 21.75 18.075C21.75 17.7 21.825 17.4 21.975 17.1L18.975 14.1C18.9 14.1 18.825 14.175 18.75 14.175V21.975C19.65 22.275 20.25 23.1 20.25 24.075C20.25 25.35 19.275 26.325 18 26.325C16.725 26.325 15.75 25.35 15.75 24.075C15.75 23.1 16.35 22.275 17.25 21.975V14.1C16.35 13.8 15.75 12.975 15.75 12C15.75 11.625 15.825 11.325 15.975 11.025L12.9 7.95L4.35 16.575C3.975 16.95 3.75 17.475 3.75 18C3.75 18.525 3.975 19.05 4.35 19.425L16.575 31.65C16.95 32.025 17.475 32.25 18 32.25C18.525 32.25 19.05 32.025 19.425 31.65L31.65 19.425C32.025 19.05 32.25 18.525 32.25 18C32.25 17.475 32.025 16.95 31.65 16.575Z" fill="#F4511E"/>
</svg>
