<svg width="36" height="36" viewBox="0 0 36 36" fill="none" xmlns="http://www.w3.org/2000/svg">
<path d="M12.8095 33.7219C13.3214 33.5015 13.68 32.9925 13.68 32.3999V28.5119C13.68 28.3701 13.6915 28.2225 13.7095 28.0727C13.6994 28.0756 13.6901 28.0778 13.68 28.0799C13.68 28.0799 11.52 28.0799 11.088 28.0799C10.008 28.0799 9.072 27.6479 8.64 26.7839C8.136 25.8479 7.92 24.2639 6.624 23.3999C6.408 23.2559 6.552 23.0399 6.984 23.0399C7.416 23.1119 8.352 23.6879 8.928 24.4799C9.576 25.2719 10.224 25.9199 11.376 25.9199C13.1666 25.9199 14.1264 25.8299 14.7038 25.5203C15.3763 24.5203 16.3073 23.7599 17.28 23.7599V23.7419C13.199 23.6109 10.5919 22.2544 9.378 20.1599C6.7392 20.1902 4.44168 20.4515 3.13056 20.669C3.0888 20.4335 3.0528 20.1967 3.02184 19.9583C4.31568 19.7452 6.5088 19.4925 9.03024 19.4443C8.9496 19.2455 8.87976 19.0418 8.82072 18.833C6.2928 18.7048 4.1112 18.8049 2.92608 18.9028C2.91168 18.6638 2.89224 18.4255 2.88936 18.1835C4.07664 18.0863 6.1992 17.9891 8.66232 18.1036C8.60544 17.7436 8.56872 17.3757 8.56872 16.9927C8.56872 15.7687 9.00072 14.4727 9.79272 13.3927C9.43272 12.1687 8.92872 9.57666 9.93672 8.64066C11.8807 8.64066 13.2487 9.57666 13.8967 10.1527C15.12 9.64794 16.488 9.35994 18 9.35994C19.512 9.35994 20.88 9.64794 22.032 10.1519C22.68 9.57594 24.048 8.63994 25.992 8.63994C27.072 9.64794 26.496 12.2399 26.136 13.3919C26.928 14.4719 27.36 15.6959 27.288 16.9919C27.288 17.3404 27.2556 17.6767 27.2088 18.0064C29.7281 17.8826 31.9082 17.9819 33.1157 18.0799C33.1142 18.3225 33.0919 18.5594 33.079 18.7991C31.8758 18.6998 29.641 18.5975 27.0605 18.7351C26.9964 18.977 26.9186 19.2124 26.8265 19.4407C29.3796 19.4738 31.6253 19.7207 32.981 19.9367C32.9501 20.1758 32.9141 20.4127 32.8723 20.6474C31.4957 20.4271 29.1492 20.1693 26.4794 20.1563C25.2806 22.2285 22.721 23.5799 18.72 23.7376V23.7599C20.592 23.7599 22.32 26.5679 22.32 28.5119V32.3999C22.32 32.9925 22.6786 33.5015 23.1905 33.7219C29.7864 31.5388 34.56 25.318 34.56 17.9999C34.56 8.8689 27.1318 1.43994 18 1.43994C8.86824 1.43994 1.44 8.8689 1.44 17.9999C1.44 25.318 6.2136 31.5388 12.8095 33.7219Z" fill="black"/>
</svg>
