<svg width="62" height="62" viewBox="0 0 62 62" fill="none" xmlns="http://www.w3.org/2000/svg">
<path d="M52.9584 6.45834H9.04169L12.9167 50.375L31 55.5417L49.0834 50.375L52.9584 6.45834Z" fill="#E65100"/>
<path d="M31 10.3333V51.5375L45.4667 47.4042L48.6958 10.3333H31Z" fill="#FF6D00"/>
<path d="M31 32.2917V27.125H42.1083L41.2042 41.9792L31 45.3375V39.9125L36.2958 38.1042L36.6833 32.2917H31ZM42.4958 21.9583L42.8833 16.7917H31V21.9583H42.4958Z" fill="white"/>
<path d="M31 39.9125V45.3375L20.7959 41.9792L20.2792 34.875H25.4459L25.7042 38.1042L31 39.9125ZM24.6709 21.9583H31V16.7917H19.2458L20.15 32.2917H31V27.125H25.0583L24.6709 21.9583Z" fill="#EEEEEE"/>
</svg>
