<svg width="36" height="36" viewBox="0 0 36 36" fill="none" xmlns="http://www.w3.org/2000/svg">
<path d="M4.5 7.5C4.5 5.84325 5.84325 4.5 7.5 4.5H28.5C30.1567 4.5 31.5 5.84325 31.5 7.5V28.5C31.5 30.1567 30.1567 31.5 28.5 31.5H7.5C5.84325 31.5 4.5 30.1567 4.5 28.5V7.5Z" fill="#FF5722"/>
<path d="M6.75 6.75V29.25H29.25V6.75H6.75ZM17.7682 23.25L17.1968 21.0675H14.2598L13.689 23.25H11.4113L14.7435 12.5858H16.7137L20.0685 23.25H17.7682ZM23.1375 23.25H21.0577V15.3255H23.1375V23.25ZM22.914 14.0655C22.7107 14.2755 22.437 14.3805 22.0897 14.3805C21.7425 14.3805 21.4688 14.2755 21.2655 14.0655C21.0623 13.8555 20.9618 13.5915 20.9618 13.2742C20.9618 12.9517 21.0645 12.6885 21.2692 12.483C21.474 12.2775 21.7485 12.1755 22.0897 12.1755C22.431 12.1755 22.7048 12.2782 22.9103 12.483C23.1158 12.6877 23.2178 12.9517 23.2178 13.2742C23.2178 13.5915 23.1165 13.8555 22.914 14.0655Z" fill="#1C0802"/>
<path d="M14.7292 19.2728H16.7212L15.7252 15.4718L14.7292 19.2728Z" fill="#1C0802"/>
</svg>
