<svg width="63" height="62" viewBox="0 0 63 62" fill="none" xmlns="http://www.w3.org/2000/svg">
<path d="M8.01569 54.25V7.75H54.5157V54.25H8.01569Z" fill="#FFD600"/>
<path d="M38.4189 42.5565C39.3128 44.0084 40.2841 45.3995 42.3417 45.3995C44.07 45.3995 44.9767 44.5405 44.9767 43.3522C44.9767 41.9301 44.039 41.425 42.1376 40.5971L41.0953 40.1527C38.087 38.8766 36.0862 37.2775 36.0862 33.8998C36.0862 30.7869 38.4693 28.418 42.1932 28.418C44.845 28.418 46.7502 29.3363 48.1245 31.7414L44.8773 33.8171C44.163 32.541 43.3905 32.0385 42.1932 32.0385C40.9713 32.0385 40.1976 32.8096 40.1976 33.8171C40.1976 35.0623 40.9726 35.566 42.7615 36.3372L43.8039 36.7815C47.3495 38.2915 49.349 39.8337 49.349 43.3005C49.349 47.036 46.3988 49.0833 42.4386 49.0833C38.5649 49.0833 36.3652 47.1394 35.1407 44.733L38.4189 42.5565ZM23.4537 42.6625C24.1073 43.8327 25.1006 44.733 26.5291 44.733C27.8957 44.733 28.6823 44.1931 28.6823 42.0941V28.4167H32.9875V42.7555C32.9875 47.1045 30.4648 49.0833 26.781 49.0833C23.4524 49.0833 21.0499 46.8281 20.0708 44.733L23.4537 42.6625Z" fill="#000001"/>
</svg>
