<svg width="36" height="36" viewBox="0 0 36 36" fill="none" xmlns="http://www.w3.org/2000/svg">
<path d="M4.5 7.5C4.5 5.84325 5.84325 4.5 7.5 4.5H28.5C30.1567 4.5 31.5 5.84325 31.5 7.5V28.5C31.5 30.1567 30.1567 31.5 28.5 31.5H7.5C5.84325 31.5 4.5 30.1567 4.5 28.5V7.5Z" fill="#03A9F4"/>
<path d="M15.012 14.3805H13.5105V17.706H14.9902C15.4005 17.706 15.7177 17.5717 15.9427 17.3032C16.1677 17.0347 16.2795 16.644 16.2795 16.131C16.2795 15.5985 16.1647 15.1755 15.9352 14.8605C15.7057 14.5455 15.3975 14.3857 15.012 14.3805Z" fill="#020F16"/>
<path d="M6.75 6.75V29.25H29.25V6.75H6.75ZM17.5238 18.5917C16.9043 19.1978 16.0447 19.5 14.946 19.5H13.5105V23.25H11.3572V12.5858H14.9902C16.0447 12.5858 16.8862 12.9135 17.5133 13.5675C18.1403 14.2215 18.4545 15.0713 18.4545 16.116C18.4545 17.1608 18.144 17.9857 17.5238 18.5917ZM24.5115 22.752C23.9797 23.1818 23.2808 23.3962 22.4167 23.3962C21.8355 23.3962 21.3225 23.283 20.8785 23.0557C20.4345 22.8285 20.0857 22.512 19.8345 22.107C19.5832 21.702 19.4573 21.2648 19.4573 20.796H21.4275C21.438 21.1568 21.5212 21.4283 21.6803 21.609C21.8392 21.7898 22.0988 21.8798 22.4603 21.8798C23.0168 21.8798 23.295 21.6285 23.295 21.1252C23.295 20.9497 23.211 20.787 23.0422 20.6385C22.8735 20.49 22.5 20.289 21.9188 20.0347C21.0645 19.6882 20.4772 19.3298 20.157 18.9578C19.8368 18.5858 19.677 18.1252 19.677 17.5732C19.677 16.8795 19.9275 16.3073 20.4277 15.8558C20.928 15.4043 21.5918 15.1785 22.416 15.1785C23.2845 15.1785 23.9805 15.4035 24.5033 15.852C25.026 16.3005 25.287 16.9043 25.287 17.661H23.214C23.214 17.0168 22.9463 16.6943 22.4085 16.6943C22.1888 16.6943 22.0088 16.7625 21.8663 16.899C21.7238 17.0355 21.654 17.2268 21.654 17.4705C21.654 17.646 21.732 17.8012 21.8888 17.9355C22.0455 18.0697 22.413 18.2618 22.995 18.5107C23.8403 18.8235 24.4365 19.1715 24.786 19.5548C25.1355 19.938 25.3095 20.4352 25.3095 21.045C25.3095 21.7537 25.0432 22.3223 24.5115 22.752Z" fill="#020F16"/>
</svg>
