<svg width="63" height="62" viewBox="0 0 63 62" fill="none" xmlns="http://www.w3.org/2000/svg">
<path fill-rule="evenodd" clip-rule="evenodd" d="M43.7464 4.94062C42.7796 4.90812 41.7676 5.07667 40.7529 5.40562C38.7237 6.06353 36.5972 7.34562 34.4149 9.12078C33.5597 9.81647 32.6967 10.6117 31.8308 11.4555C30.9839 10.6331 30.1387 9.85924 29.3023 9.17891C27.1218 7.40517 25.0011 6.12258 22.9764 5.46617C20.9517 4.80976 18.9371 4.78942 17.2825 5.74469C15.628 6.69995 14.6385 8.45352 14.1947 10.5352C13.7508 12.6168 13.7997 15.0958 14.2455 17.871C14.4004 18.835 14.6212 19.8463 14.8728 20.8766C13.9274 21.1631 13.0092 21.4643 12.1579 21.7969C9.58846 22.8004 7.46244 24.001 5.91427 25.4297C4.3661 26.8584 3.36646 28.5923 3.36646 30.4962C3.36646 32.4002 4.3661 34.1317 5.91427 35.5604C7.46244 36.9891 9.58846 38.1921 12.1579 39.1956C13.0682 39.5512 14.0539 39.8714 15.0714 40.1741C14.7054 41.5416 14.4089 42.8686 14.2068 44.1266C13.7606 46.9041 13.7135 49.3833 14.1583 51.4697C14.6032 53.556 15.5932 55.3195 17.2559 56.2795C18.9187 57.2395 20.9423 57.2159 22.9715 56.558C25.0008 55.9001 27.1249 54.6205 29.3072 52.8453C30.1545 52.156 31.0117 51.3697 31.8695 50.5348C32.7318 51.3748 33.5924 52.1647 34.444 52.8574C36.6245 54.6312 38.7476 55.9113 40.7723 56.5677C42.797 57.2241 44.8116 57.2445 46.4661 56.2892C48.1207 55.334 49.1077 53.5804 49.5516 51.4988C49.9955 49.4171 49.9466 46.9406 49.5008 44.1653C49.2981 42.904 49.0014 41.5725 48.6337 40.2007C49.6848 39.8906 50.7016 39.5619 51.6393 39.1956C54.2087 38.1921 56.3347 36.9891 57.8829 35.5604C59.431 34.1317 60.4307 32.4002 60.4307 30.4962C60.4307 28.5923 59.431 26.8584 57.8829 25.4297C56.3347 24.001 54.2087 22.8004 51.6393 21.7969C50.7757 21.4596 49.8435 21.1544 48.8832 20.8645C49.1368 19.8279 49.3619 18.8093 49.5177 17.8395C49.9639 15.062 50.011 12.5803 49.5661 10.494C49.1213 8.40763 48.1289 6.64655 46.4661 5.68656C45.6348 5.20657 44.7132 4.97313 43.7464 4.94062ZM43.6325 7.46422C44.2392 7.48081 44.7568 7.62518 45.1995 7.88078C46.0849 8.39198 46.7394 9.38691 47.0886 11.0244C47.4377 12.6618 47.4257 14.8742 47.0135 17.4399C46.8724 18.3184 46.6675 19.2494 46.4347 20.2033C43.8982 19.5929 41.1189 19.1399 38.1567 18.8737C36.6696 16.8136 35.1417 14.9368 33.6011 13.2719C34.416 12.4765 35.2256 11.7325 36.0158 11.0898C38.0316 9.44996 39.9401 8.33416 41.5328 7.81781C42.3291 7.55964 43.0259 7.44763 43.6325 7.46422ZM20.1016 7.47148C20.7118 7.45445 21.41 7.56616 22.2086 7.82508C23.8059 8.34292 25.7177 9.45822 27.7354 11.0995C28.5097 11.7293 29.3011 12.4591 30.0991 13.2355C28.5472 14.9141 27.0066 16.8071 25.5097 18.8858C22.56 19.1569 19.792 19.6123 17.268 20.2251C17.0369 19.2765 16.832 18.3502 16.6916 17.4762C16.2791 14.9083 16.2688 12.6956 16.619 11.0534C16.9691 9.41125 17.6289 8.40882 18.5225 7.89289C18.9694 7.63493 19.4914 7.48852 20.1016 7.47148ZM31.8695 15.0568C32.8796 16.156 33.89 17.359 34.892 18.6533C33.9074 18.6122 32.9108 18.5879 31.8986 18.5879C30.8662 18.5879 29.8506 18.613 28.847 18.6557C29.8493 17.3604 30.8591 16.1569 31.8695 15.0568ZM31.8986 21.0921C33.5848 21.0921 35.2284 21.1614 36.8271 21.2786C37.9271 22.8585 39.0021 24.5347 40.0264 26.3088C40.9264 27.8677 41.7409 29.4242 42.4822 30.9612C41.733 32.5187 40.9049 34.0962 39.9925 35.6766C39.1893 37.0678 38.3505 38.3891 37.4979 39.663C35.6921 39.814 33.8209 39.898 31.8986 39.898C29.9299 39.898 28.0167 39.809 26.1708 39.6509C25.3324 38.3953 24.5078 37.094 23.7175 35.7251C22.8071 34.1483 21.983 32.5737 21.235 31.0194C21.9861 29.4563 22.814 27.8729 23.7296 26.287C24.7485 24.5222 25.8203 22.8557 26.9143 21.2834C28.5302 21.1636 30.1929 21.0921 31.8986 21.0921ZM40.0191 21.5886C42.0632 21.8436 43.9825 22.1977 45.7686 22.6227C45.2386 24.3602 44.5858 26.1749 43.7948 28.0477C43.2812 27.0577 42.7493 26.0643 42.1746 25.0688C41.4781 23.8625 40.7527 22.7124 40.0191 21.5886ZM23.6448 21.608C22.9267 22.7107 22.2202 23.8385 21.5378 25.0204C20.9557 26.0286 20.4127 27.0354 19.8933 28.038C19.1092 26.1765 18.4603 24.372 17.934 22.6445C19.7069 22.2188 21.615 21.8659 23.6448 21.608ZM48.222 23.2815C49.101 23.5474 49.9499 23.825 50.7286 24.1291C53.0972 25.0543 54.9708 26.1497 56.1851 27.2703C57.3994 28.3909 57.9265 29.4595 57.9265 30.4962C57.9265 31.533 57.3994 32.6016 56.1851 33.7222C54.9708 34.8428 53.0972 35.9382 50.7286 36.8634C49.8633 37.2013 48.9126 37.5078 47.9241 37.7982C47.219 35.6173 46.319 33.3421 45.2479 31.0194C46.4795 28.3527 47.4743 25.7527 48.222 23.2815ZM15.534 23.2936C16.2731 25.7401 17.2552 28.3143 18.4693 30.954C17.3911 33.2902 16.4867 35.5784 15.7786 37.7716C14.825 37.4888 13.9064 37.1906 13.0685 36.8634C10.6999 35.9382 8.82632 34.8428 7.612 33.7222C6.39769 32.6016 5.87067 31.533 5.87067 30.4962C5.87067 29.4595 6.39769 28.3909 7.612 27.2703C8.82632 26.1497 10.6999 25.0543 13.0685 24.1291C13.8352 23.8297 14.6699 23.5561 15.534 23.2936ZM31.8986 24.8C28.4891 24.8 25.6986 27.5905 25.6986 31C25.6986 34.4095 28.4891 37.2 31.8986 37.2C35.308 37.2 38.0986 34.4095 38.0986 31C38.0986 27.5905 35.308 24.8 31.8986 24.8ZM19.9224 33.9329C20.4441 34.9405 20.9866 35.9517 21.5717 36.9651C22.0295 37.758 22.497 38.5298 22.9715 39.2877C21.3063 39.0567 19.7233 38.7644 18.2368 38.4182C18.7095 36.9704 19.275 35.4675 19.9224 33.9329ZM43.8263 33.9329C44.4762 35.4711 45.0421 36.9764 45.5168 38.4279C44.0255 38.7737 42.4377 39.065 40.7675 39.2949C41.2483 38.5278 41.7231 37.7463 42.1867 36.9433C42.7675 35.9373 43.3079 34.9332 43.8263 33.9329ZM17.5223 40.8255C19.7665 41.3572 22.1989 41.7656 24.7783 42.0316C26.5001 44.522 28.2938 46.7598 30.0991 48.716C29.2919 49.5031 28.4917 50.2418 27.7087 50.8788C25.6928 52.5186 23.7819 53.6319 22.1893 54.1483C20.5966 54.6646 19.408 54.5965 18.5225 54.0853C17.6371 53.5741 16.9851 52.5792 16.6359 50.9417C16.2867 49.3043 16.2964 47.0943 16.7086 44.5286C16.8955 43.3647 17.175 42.1183 17.5223 40.8255ZM46.2336 40.8352C46.5839 42.1359 46.8641 43.3868 47.0522 44.5577C47.4648 47.1256 47.4751 49.3383 47.1249 50.9805C46.7747 52.6227 46.1198 53.6275 45.2261 54.1434C44.3325 54.6594 43.1325 54.7267 41.5352 54.2088C39.9379 53.691 38.0261 52.5757 36.0085 50.9345C35.2198 50.2929 34.4142 49.5482 33.6011 48.7548C35.4185 46.7909 37.2249 44.5417 38.9583 42.0365C41.5442 41.7722 43.9833 41.3662 46.2336 40.8352ZM28.0139 42.2859C29.2871 42.3553 30.577 42.4022 31.8986 42.4022C33.1764 42.4022 34.4245 42.3581 35.6573 42.2932C34.3971 43.9935 33.1126 45.5392 31.8332 46.9311C30.5546 45.5362 29.2724 43.9877 28.0139 42.2859Z" fill="#039BE5"/>
</svg>
