<svg width="63" height="62" viewBox="0 0 63 62" fill="none" xmlns="http://www.w3.org/2000/svg">
<g clip-path="url(#clip0_1_28)">
<path d="M31.5314 12.4052C23.2647 12.4052 18.098 16.5372 16.0314 24.8013C19.1314 20.6693 22.748 19.1205 26.8814 20.1526C29.24 20.7416 30.9256 22.453 32.792 24.3466C35.83 27.4298 39.3472 31 47.0314 31C55.298 31 60.4647 26.868 62.5314 18.6026C59.4314 22.7346 55.8147 24.2846 51.6814 23.2526C49.3241 22.6636 47.6385 20.9521 45.772 19.0585C42.7327 15.974 39.2142 12.4052 31.5314 12.4052ZM16.0314 31C7.76471 31 2.59804 35.132 0.531372 43.3974C3.63137 39.2654 7.24804 37.7154 11.3814 38.7487C13.7387 39.339 15.4243 41.0492 17.2907 42.9415C20.33 46.026 23.8485 49.5961 31.5314 49.5961C39.798 49.5961 44.9647 45.4641 47.0314 37.1987C43.9314 41.3308 40.3147 42.8808 36.1814 41.8474C33.8228 41.2584 32.1372 39.547 30.2707 37.6547C27.2327 34.5702 23.7155 31 16.0314 31Z" fill="#00ACC1"/>
</g>
<defs>
<clipPath id="clip0_1_28">
<rect width="62" height="62" fill="white" transform="translate(0.531372)"/>
</clipPath>
</defs>
</svg>
