<svg width="62" height="62" viewBox="0 0 62 62" fill="none" xmlns="http://www.w3.org/2000/svg">
<path d="M54.25 7.75H7.75V54.25H54.25V7.75Z" fill="#1976D2"/>
<path d="M35.508 28.4167H18.3766V32.6327H24.521V51.6667H29.3893V32.6327H35.508V28.4167Z" fill="white"/>
<path d="M50.6256 33.6918C50.6256 33.6918 48.3174 32.1522 45.7083 32.1522C43.0991 32.1522 42.16 33.3922 42.16 34.7174C42.16 38.1378 51.6938 37.7955 51.6938 44.6788C51.6938 55.282 37.1574 50.5791 37.1574 50.5791V45.4925C37.1574 45.4925 39.9371 47.5876 43.2709 47.5876C46.6047 47.5876 46.4781 45.4073 46.4781 45.1076C46.4781 41.9443 37.0295 41.9443 37.0295 34.9318C37.0295 25.398 50.7961 29.1594 50.7961 29.1594L50.6256 33.6918Z" fill="white"/>
</svg>
