<svg width="28" height="28" viewBox="0 0 28 28" fill="none" xmlns="http://www.w3.org/2000/svg">
<path d="M26.1683 5.81931L14.5967 26.5113C14.3576 26.9383 13.7439 26.9412 13.5012 26.516L1.70039 5.82106C1.43614 5.35789 1.83223 4.79673 2.35723 4.89064L13.9416 6.96148C14.0157 6.97489 14.091 6.97431 14.1651 6.96089L25.5068 4.89356C26.0301 4.79789 26.4279 5.35498 26.1683 5.81931Z" fill="url(#paint0_linear_5_273)"/>
<path d="M19.5849 1.75579L11.0944 3.41945C10.955 3.44687 10.8518 3.56529 10.843 3.70704L10.3209 12.5276C10.3087 12.7353 10.4994 12.8969 10.7024 12.8496L13.0661 12.3042C13.2872 12.2535 13.4873 12.4477 13.4418 12.6705L12.7394 16.1093C12.6922 16.3409 12.9092 16.5386 13.1355 16.4698L14.5956 16.0265C14.8219 15.9576 15.0395 16.156 14.9917 16.3881L13.8758 21.7898C13.8058 22.1275 14.2555 22.3119 14.4428 22.022L14.5682 21.8283L21.4865 8.02137C21.6026 7.79037 21.4025 7.5267 21.1488 7.5757L18.7157 8.04529C18.487 8.08962 18.2928 7.8767 18.3569 7.6527L19.9448 2.1472C20.0089 1.92437 19.8141 1.71087 19.5849 1.75579Z" fill="url(#paint1_linear_5_273)"/>
<defs>
<linearGradient id="paint0_linear_5_273" x1="7.76706" y1="-0.528523" x2="22.1696" y2="19.0301" gradientUnits="userSpaceOnUse">
<stop stop-color="#41D1FF"/>
<stop offset="1" stop-color="#9231BE"/>
</linearGradient>
<linearGradient id="paint1_linear_5_273" x1="14.8762" y1="3.05429" x2="21.6598" y2="49.5891" gradientUnits="userSpaceOnUse">
<stop stop-color="#FED100"/>
<stop offset="1" stop-color="#E36001"/>
</linearGradient>
</defs>
</svg>
